<svg width="157" height="163" viewBox="0 0 157 163" fill="none" xmlns="http://www.w3.org/2000/svg">
<path d="M156.966 115.303C155.632 142.438 119.488 163.812 76.1157 162.977C32.7429 162.141 -1.29559 139.492 0.0378784 112.356C1.37135 85.1766 37.5153 63.8464 80.8179 64.6821C124.191 65.4737 158.229 88.1233 156.966 115.303Z" fill="#00AB91"/>
<path d="M80.8179 64.637L76.1157 162.976C32.7429 162.14 -1.29559 139.491 0.0378784 112.355C1.37135 85.1755 37.5153 63.8014 80.8179 64.637Z" fill="#008974"/>
<path d="M115.767 48.7172L114.715 70.0914L46.4272 68.816L47.4799 47.4418C47.6905 42.472 54.2876 38.5579 62.2885 38.7339L101.871 39.4814C109.802 39.6134 116.048 43.7915 115.767 48.7172Z" fill="white"/>
<path d="M80.6045 69.4756L46.4958 68.816L47.5485 47.4418C47.7591 42.472 54.3563 38.5579 62.3571 38.7339L82.1486 39.0856L80.9555 63.8022L80.6045 69.4756Z" fill="#8AF3FF"/>
<path d="M103.557 84.2087C121.944 90.5858 134.858 102.504 136.191 116.622" stroke="white" stroke-width="2" stroke-miterlimit="10"/>
<path d="M85.4789 36.0752C83.8021 37.4362 80.9959 39.1561 80.9959 39.1561C80.9959 39.1561 79.3642 34.6786 78.6037 31.7844C77.7963 28.7117 77.0514 23.9006 77.0514 23.9006C77.0514 23.9006 76.2208 19.5225 76.3235 16.5526L76.3253 16.5001C76.413 13.9625 76.4709 12.2883 77.2503 9.92692C77.9043 7.94527 78.3378 6.77072 79.5365 5.24241C80.723 3.72968 81.6244 3.13062 83.1849 2.32433C84.9286 1.42335 86.0392 1.08001 87.9179 1.16876C89.5851 1.24752 90.5498 1.57277 92.0613 2.45068C93.9162 3.52796 94.9078 4.5023 96.165 6.52732C97.1471 8.1092 97.6457 9.14814 98.0421 11.0964C98.5119 13.4056 98.3337 14.8672 97.9551 17.2099C97.5473 19.733 96.9559 21.0664 95.9263 23.2957C94.51 26.3624 93.2666 27.738 91.25 30.2174C89.1785 32.764 87.9115 34.1008 85.4789 36.0752Z" stroke="white" stroke-width="2"/>
</svg>
