<svg width="157" height="163" viewBox="0 0 157 163" fill="none" xmlns="http://www.w3.org/2000/svg">
<path d="M156.966 115.303C155.632 142.439 119.488 163.813 76.1157 162.977C32.7429 162.142 -1.29559 139.492 0.0378784 112.357C1.37135 85.1771 37.5153 63.8469 80.8179 64.6825C124.191 65.4742 158.229 88.1238 156.966 115.303Z" fill="#00AB91"/>
<path d="M80.8179 64.6375L76.1157 162.976C32.7429 162.141 -1.29559 139.491 0.0378784 112.355C1.37135 85.176 37.5153 63.8018 80.8179 64.6375Z" fill="#008974"/>
<path d="M115.767 48.7177L114.715 70.0919L46.4272 68.8165L47.4799 47.4422C47.6905 42.4725 54.2876 38.5584 62.2885 38.7343L101.871 39.4819C109.802 39.6139 116.048 43.792 115.767 48.7177Z" fill="white"/>
<path d="M80.6045 69.4761L46.4958 68.8165L47.5485 47.4422C47.7591 42.4725 54.3563 38.5584 62.3571 38.7343L82.1486 39.0861L80.9555 63.8027L80.6045 69.4761Z" fill="#8AF3FF"/>
<path d="M103.557 84.2092C121.944 90.5863 134.858 102.505 136.191 116.622" stroke="white" stroke-width="2" stroke-miterlimit="10"/>
<path d="M84.4787 36.0757C82.8019 37.4367 79.9957 39.1566 79.9957 39.1566C79.9957 39.1566 78.364 34.6791 77.6035 31.7849C76.7961 28.7122 76.0511 23.9011 76.0511 23.9011C76.0511 23.9011 75.2206 19.523 75.3233 16.553L75.3251 16.5006C75.4128 13.963 75.4707 12.2888 76.25 9.92741C76.904 7.94576 77.3376 6.77121 78.5363 5.24289C79.7227 3.73017 80.6241 3.13111 82.1846 2.32482C83.9284 1.42384 85.039 1.08049 86.9176 1.16925C88.5849 1.24801 89.5495 1.57326 91.0611 2.45116C92.916 3.52845 93.9075 4.50279 95.1648 6.52781C96.1469 8.10968 96.6454 9.14863 97.0419 11.0969C97.5117 13.4061 97.3334 14.8677 96.9548 17.2104C96.5471 19.7334 95.9557 21.0669 94.9261 23.2962C93.5098 26.3629 92.2664 27.7385 90.2497 30.2179C88.1783 32.7645 86.9113 34.1013 84.4787 36.0757Z" stroke="white" stroke-width="2"/>
</svg>
