<svg width="157" height="167" viewBox="0 0 157 167" fill="none" xmlns="http://www.w3.org/2000/svg">
<path d="M98.2759 44.716V62.4306H58.0703V44.716C58.0703 40.5949 61.8315 37.2752 66.5005 37.2752H89.8133C94.4823 37.2466 98.2759 40.5949 98.2759 44.716Z" fill="white"/>
<path d="M78.1731 62.4305H58.0703V44.7159C58.0703 40.5949 61.8315 37.2751 66.5005 37.2751H78.1407V57.7658L78.1731 62.4305Z" fill="#8AF3FF"/>
<path d="M91.3049 162.538C87.7058 165.342 83.2638 166.773 78.7893 166.973C73.5042 167.231 68.1218 165.657 63.9715 162.251C-32.8787 83.6373 1.62036 39.6798 34.6279 39.9946C66.8897 40.2808 77.5896 60.056 78.7893 62.5457C78.8865 62.7174 78.9189 62.8033 78.9189 62.8033C78.9189 62.8033 89.3595 40.5383 123.794 40.8531C156.801 41.2251 190.165 85.8409 91.3049 162.538Z" fill="#8AF3FF"/>
<path opacity="0.5" d="M78.2052 62.5451V166.944C72.9202 167.202 67.5378 165.628 63.3875 162.222C-33.4627 83.608 1.03636 39.6505 34.0439 39.9653C66.3057 40.2801 76.9731 60.0553 78.2052 62.5451Z" fill="#00AB91"/>
<path d="M100.611 64.1767C119.06 46.9772 148.404 57.9093 133.748 92.108" stroke="white" stroke-width="2" stroke-miterlimit="10"/>
<path d="M82.4789 36.0752C80.8021 37.4362 77.9959 39.1561 77.9959 39.1561C77.9959 39.1561 76.3642 34.6786 75.6037 31.7844C74.7963 28.7117 74.0514 23.9006 74.0514 23.9006C74.0514 23.9006 73.2208 19.5225 73.3235 16.5526L73.3253 16.5001C73.413 13.9625 73.4709 12.2883 74.2503 9.92692C74.9043 7.94527 75.3378 6.77072 76.5365 5.24241C77.723 3.72968 78.6244 3.13062 80.1849 2.32433C81.9286 1.42335 83.0392 1.08001 84.9179 1.16876C86.5851 1.24752 87.5498 1.57277 89.0613 2.45068C90.9162 3.52796 91.9078 4.5023 93.165 6.52732C94.1471 8.1092 94.6457 9.14814 95.0421 11.0964C95.5119 13.4056 95.3337 14.8672 94.9551 17.2099C94.5473 19.733 93.9559 21.0664 92.9263 23.2957C91.51 26.3624 90.2666 27.738 88.25 30.2174C86.1785 32.764 84.9115 34.1008 82.4789 36.0752Z" stroke="white" stroke-width="2"/>
</svg>
