<svg width="157" height="170" viewBox="0 0 157 170" fill="none" xmlns="http://www.w3.org/2000/svg">
<path d="M98.2629 47.6944V65.4123H58.0625V47.6944C58.0625 43.5726 61.8232 40.2523 66.4916 40.2523H89.8014C94.5023 40.2236 98.2629 43.5726 98.2629 47.6944Z" fill="white"/>
<path d="M78.1962 65.4121H58.0959V47.6942C58.0959 43.5724 61.8567 40.2521 66.5251 40.2521H78.1638V60.7465L78.1962 65.4121Z" fill="#8AF3FF"/>
<path d="M91.3249 165.536C87.7263 168.341 83.2848 169.773 78.8108 169.973C73.5264 170.231 68.1448 168.656 63.9951 165.25C-32.8426 86.6216 1.65192 42.6559 34.6552 42.9708C66.9128 43.257 77.6113 63.0358 78.8108 65.526C78.9081 65.6977 78.9406 65.7837 78.9406 65.7837C78.9406 65.7837 89.3797 43.5146 123.809 43.8295C156.78 44.2016 190.173 88.8541 91.3249 165.536Z" fill="#FF5287"/>
<path d="M78.1952 65.5267V169.945C72.9108 170.203 67.5291 168.628 63.3794 165.222C-33.4583 86.5936 1.0362 42.628 34.0395 42.9428C66.2971 43.2577 76.9633 63.0651 78.1952 65.5267Z" fill="#FF2E60"/>
<path d="M100.598 67.1573C119.044 49.9546 148.384 60.8888 133.731 95.0938" stroke="white" stroke-width="2" stroke-miterlimit="10"/>
<path d="M83.4789 36.0752C81.8021 37.4362 78.9959 39.1561 78.9959 39.1561C78.9959 39.1561 77.3642 34.6786 76.6037 31.7844C75.7963 28.7117 75.0514 23.9006 75.0514 23.9006C75.0514 23.9006 74.2208 19.5225 74.3235 16.5526L74.3253 16.5001C74.413 13.9625 74.4709 12.2883 75.2503 9.92692C75.9043 7.94527 76.3378 6.77072 77.5365 5.24241C78.723 3.72968 79.6244 3.13062 81.1849 2.32433C82.9286 1.42335 84.0392 1.08001 85.9179 1.16876C87.5851 1.24752 88.5498 1.57277 90.0613 2.45068C91.9162 3.52796 92.9078 4.5023 94.165 6.52732C95.1471 8.1092 95.6457 9.14814 96.0421 11.0964C96.5119 13.4056 96.3337 14.8672 95.9551 17.2099C95.5473 19.733 94.9559 21.0664 93.9263 23.2957C92.51 26.3624 91.2666 27.738 89.25 30.2174C87.1785 32.764 85.9115 34.1008 83.4789 36.0752Z" stroke="white" stroke-width="2"/>
</svg>
