<svg width="157" height="167" viewBox="0 0 157 167" fill="none" xmlns="http://www.w3.org/2000/svg">
<path d="M94.9913 44.2022V56.7082H61.98V44.2022C61.98 41.2944 65.0631 38.9303 68.9248 38.9303H88.0465C91.877 38.9539 94.9913 41.3181 94.9913 44.2022Z" fill="white"/>
<path d="M78.4856 56.7314H61.98V44.2254C61.98 41.3175 65.0631 38.9535 68.9248 38.9535H78.4856V53.4217V56.7314Z" fill="#8AF3FF"/>
<path d="M151.296 97.7717C163.286 89.5919 155.033 74.5327 138.963 75.171H138.091C128.312 75.171 120.527 68.977 120.994 61.5301C121.835 49.3078 101.997 43.0666 91.2214 52.1684C87.7957 55.0053 83.1554 56.4237 78.5151 56.4237C73.8749 56.4237 69.2034 55.0053 65.8089 52.1684C62.2586 49.166 57.7429 47.842 53.2583 47.842C44.1958 47.842 35.507 53.3268 36.0364 61.5301C36.5347 69.1898 28.2196 75.5492 18.067 75.171C17.7244 75.1474 17.413 75.1473 17.1016 75.1473C1.65476 75.1473 -6.00636 89.7574 5.73447 97.7717C13.271 102.925 13.271 111.885 5.73447 117.063C1.77934 119.758 0.0353371 123.186 0.0353371 126.59C0.0353371 133.469 7.26046 140.065 18.067 139.663H18.9079C28.6867 139.663 36.4724 145.834 36.0052 153.304C35.1644 165.526 55.0024 171.768 65.7778 162.666C69.2035 159.829 73.8437 158.363 78.484 158.363C83.1243 158.363 87.7957 159.805 91.1902 162.666C101.966 171.768 121.804 165.503 120.963 153.304C120.464 145.621 128.78 139.285 138.932 139.663C139.275 139.687 139.586 139.687 139.898 139.687C155.344 139.687 163.005 125.077 151.265 117.063C143.759 111.885 143.759 102.925 151.296 97.7717ZM78.484 129.119C62.6946 129.119 49.8949 119.427 49.8949 107.417C49.8949 95.4312 62.6946 85.7148 78.484 85.7148C94.2734 85.7148 107.073 95.4312 107.073 107.417C107.104 119.427 94.2734 129.119 78.484 129.119Z" fill="#FFB017"/>
<path d="M49.8958 107.418C49.8958 119.428 62.6955 129.12 78.4849 129.12V158.364C73.8446 158.364 69.1732 159.806 65.7786 162.667C55.0032 171.769 35.1653 165.504 36.0061 153.305C36.4733 145.835 28.6876 139.664 18.9087 139.664H18.0367C7.2302 140.066 0.00507238 133.47 0.00507238 126.591C0.00507238 123.187 1.74906 119.759 5.70419 117.064C13.2407 111.886 13.2407 102.926 5.70419 97.7727C-6.03663 89.7584 1.6245 75.1483 17.0713 75.1483C17.3827 75.1483 17.6942 75.1483 18.0367 75.172C28.1581 75.5502 36.5044 69.2144 36.0061 61.5311C35.4767 53.3277 44.1655 47.843 53.2281 47.843C57.7126 47.843 62.2283 49.1669 65.7786 52.1693C69.2043 55.0063 73.8446 56.4247 78.4849 56.4247V85.7158C62.6955 85.6921 49.8958 95.4322 49.8958 107.418Z" fill="#FC8035"/>
<path d="M105.89 70.8213C104.083 77.1571 109.627 83.3037 117.973 84.3439C118.222 84.3675 118.471 84.4148 118.752 84.4148C132.61 85.5969 136.846 99.3795 125.105 105.101" stroke="white" stroke-width="2" stroke-miterlimit="10"/>
<path d="M82.4789 36.0757C80.8021 37.4367 77.9959 39.1566 77.9959 39.1566C77.9959 39.1566 76.3642 34.6791 75.6037 31.7849C74.7963 28.7122 74.0514 23.9011 74.0514 23.9011C74.0514 23.9011 73.2208 19.523 73.3235 16.553L73.3253 16.5006C73.413 13.963 73.4709 12.2888 74.2503 9.92741C74.9043 7.94576 75.3378 6.77121 76.5365 5.24289C77.723 3.73017 78.6244 3.13111 80.1849 2.32482C81.9286 1.42384 83.0392 1.08049 84.9179 1.16925C86.5851 1.24801 87.5498 1.57326 89.0613 2.45116C90.9162 3.52845 91.9078 4.50279 93.165 6.52781C94.1471 8.10968 94.6457 9.14863 95.0421 11.0969C95.5119 13.4061 95.3337 14.8677 94.9551 17.2104C94.5473 19.7334 93.9559 21.0669 92.9263 23.2962C91.51 26.3629 90.2666 27.7385 88.25 30.2179C86.1785 32.7645 84.9115 34.1013 82.4789 36.0757Z" stroke="white" stroke-width="2"/>
</svg>
