<svg width="235" height="577" viewBox="0 0 235 577" fill="none" xmlns="http://www.w3.org/2000/svg">
<path d="M127.607 141.561C127.607 141.561 113.515 140.28 112.843 131.817C112.191 123.354 131.76 78.7492 154.884 59.029C178.008 39.2909 200.864 20.876 207.849 32.9648C214.186 43.9186 201.691 93.1057 180.845 111.773C159.999 130.404 137.624 140.456 127.607 141.561Z" fill="url(#paint0_radial_1_142)"/>
<path d="M111.441 123.132C111.441 123.132 99.7828 119.814 97.5023 111.299C95.2399 102.803 92.0249 59.1276 111.862 34.8252C131.7 10.5228 161.633 -7.66325 164.791 4.83687C167.949 17.337 165.95 61.0523 148.23 83.852C130.529 106.634 121.457 120.2 111.441 123.132Z" fill="url(#paint1_radial_1_142)"/>
<path d="M114.831 144.128C114.831 144.128 103.44 139.611 102.72 130.503C102.018 121.395 107.057 75.3612 132.175 51.6826C157.294 27.986 191.674 11.6163 192.537 24.9903C193.4 38.3643 182.968 83.9698 160.333 106.275C137.66 128.543 125.718 141.938 114.831 144.128Z" fill="url(#paint2_radial_1_142)"/>
<path d="M93.7248 145.609C93.7248 145.609 105.629 157.96 115.367 157.265C125.106 156.569 170.314 132.599 196.25 109.501C223.44 85.3051 232.075 47.9419 217.813 49.1494C203.552 50.339 150.759 63.7915 132.46 89.8107C114.162 115.848 93.5365 134.409 93.7248 145.609Z" fill="url(#paint3_radial_1_142)"/>
<path opacity="0.2" d="M209.984 56.9764C199.989 59.7118 190.386 63.4363 180.999 67.6107C171.63 71.8391 162.494 76.6072 153.717 82.0058C144.941 87.3865 136.525 93.3977 128.76 100.186C121.05 106.992 113.863 114.574 108.513 123.302C116.368 116.676 124.327 110.624 132.612 104.917C140.861 99.1904 149.327 93.8067 157.901 88.5137C166.475 83.2385 175.157 78.1078 183.895 72.9417C192.578 67.7393 201.37 62.6274 209.984 56.9764Z" fill="#FFA8C0"/>
<path d="M88.7989 142.158C85.9494 135.807 88.1066 124.181 88.5187 115.299C88.9308 106.416 103.843 76.6378 126.125 49.1875C164.803 1.5227 175.779 9.40338 176.385 24.8712C177.123 43.8161 175.503 76.2117 151.601 108.753C130.367 137.682 101.541 170.499 88.7989 142.158Z" fill="url(#paint4_radial_1_142)"/>
<path d="M227.045 69.5734C233.058 70.1683 235.726 76.3213 232.257 81.5019C220.013 99.7315 191.999 137.698 160.54 154.758C136.086 168.034 94.6857 162.281 90.754 144.47C88.9452 136.373 146.152 61.5263 227.045 69.5734Z" fill="url(#paint5_radial_1_142)"/>
<path opacity="0.2" d="M214.048 86.2549C206.185 93.6868 198.489 100.995 190.377 107.744C182.301 114.528 173.882 120.808 165.031 126.332C156.162 131.855 146.843 136.603 137.022 140.218C127.201 143.869 116.861 146.261 106.003 147.411C116.758 149.485 128.108 148.661 138.871 145.987C149.653 143.259 159.904 138.645 169.252 132.822C178.618 126.981 187.098 119.931 194.635 112.102C202.117 104.237 208.783 95.6287 214.048 86.2549Z" fill="#FFA8C0"/>
<path opacity="0.2" d="M202.982 83.9094C193.469 87.9573 184.512 93.0137 175.684 98.1252C166.891 103.273 158.263 108.547 149.509 113.427C140.756 118.306 131.86 122.772 122.552 126.409C113.26 130.119 103.575 132.893 93.491 135.359C103.857 136.103 114.387 134.842 124.511 132.126C134.652 129.392 144.351 125.167 153.38 120.093C162.446 115.019 170.934 109.206 179.113 103.103C187.293 96.964 195.236 90.6616 202.982 83.9094Z" fill="#FFA8C0"/>
<path d="M144.652 8.5319C142.708 3.15626 133.809 0.0970699 129.653 4.429C115.004 19.6794 88.2734 57.3176 79.0973 89.8918C71.9646 115.211 79.8631 149.042 97.7943 148.676C105.937 148.503 170.688 80.7158 144.652 8.5319Z" fill="url(#paint6_radial_1_142)"/>
<path opacity="0.2" d="M123.133 18.9335C117.231 27.9967 111.64 37.0449 106.285 46.3641C101.002 55.684 96.0825 65.3836 92.4557 75.7047C88.8108 85.9899 86.6052 96.9158 86.3572 107.825C86.1272 118.752 87.7274 129.606 91.1263 139.816C90.9704 129.064 91.0865 118.566 92.4996 108.278C93.8395 97.9883 96.4206 87.9976 99.8597 78.1942C103.281 68.3907 107.559 58.7746 111.785 48.9966C116.01 39.2366 120.219 29.3152 123.133 18.9335Z" fill="#FFA8C0"/>
<path opacity="0.2" d="M144.259 37.0338C137.934 44.337 131.865 51.6786 125.977 59.2727C120.144 66.8853 114.618 74.8771 110.128 83.5595C105.638 92.2241 102.331 101.599 100.778 111.241C99.2248 120.865 99.2982 130.648 101.058 140.089C102.244 130.569 103.648 121.302 106.164 112.367C108.626 103.433 112.126 94.9019 116.374 86.6471C120.622 78.3923 125.581 70.3952 130.523 62.2545C135.465 54.1138 140.408 45.8478 144.259 37.0338Z" fill="#FFA8C0"/>
<g opacity="0.7">
<path d="M96.1901 154.731C96.1901 154.731 101.785 156.916 101.025 159.071C25.4719 373.786 6.80805 473.135 13.8398 582.564C13.8398 582.564 2.74645 585.473 1.93137 576.265C-15.6273 379.783 92.2114 159.372 96.1901 154.731Z" fill="url(#paint7_linear_1_142)"/>
<path d="M87.5013 141.395C90.0156 140.415 101.523 149.336 98.0144 158.905C96.8954 161.949 92.6957 160.125 88.4822 153.992C85.9679 150.331 85.0837 142.329 87.5013 141.395Z" fill="url(#paint8_linear_1_142)"/>
<path d="M115.476 150.24C112.534 147.483 94.9752 147.799 96.5639 159.613C97.0612 163.365 103.043 164.631 110.351 161.738C114.717 160.005 118.295 152.892 115.476 150.24Z" fill="url(#paint9_linear_1_142)"/>
<path d="M97.8347 132.052C100.681 132.956 106.952 153.118 98.8293 161.677C96.2459 164.405 93.2343 158.754 92.3916 147.95C91.8805 141.47 95.0993 131.178 97.8347 132.052Z" fill="url(#paint10_linear_1_142)"/>
<path d="M110.793 140.656C107.684 139.722 92.6536 150.376 96.5218 160.818C97.7513 164.134 103.153 161.828 108.817 154.746C112.215 150.496 113.79 141.545 110.793 140.656Z" fill="url(#paint11_linear_1_142)"/>
</g>
<defs>
<radialGradient id="paint0_radial_1_142" cx="0" cy="0" r="1" gradientUnits="userSpaceOnUse" gradientTransform="translate(215.243 9.78502) rotate(-133.773) scale(46.8962 80.7645)">
<stop stop-color="#FFDDE7"/>
<stop offset="0.1298" stop-color="#FDD7E2"/>
<stop offset="0.3053" stop-color="#F6C6D4"/>
<stop offset="0.5071" stop-color="#EBA9BD"/>
<stop offset="0.7284" stop-color="#DB829C"/>
<stop offset="0.9631" stop-color="#C75073"/>
<stop offset="1" stop-color="#C4476C"/>
</radialGradient>
<radialGradient id="paint1_radial_1_142" cx="0" cy="0" r="1" gradientUnits="userSpaceOnUse" gradientTransform="translate(165.045 -4.31911) rotate(-144.025) scale(47.447 81.1996)">
<stop stop-color="#FFDDE7"/>
<stop offset="0.3328" stop-color="#E7A0B5"/>
<stop offset="0.6377" stop-color="#D4708E"/>
<stop offset="0.8691" stop-color="#C85275"/>
<stop offset="1" stop-color="#C4476C"/>
</radialGradient>
<radialGradient id="paint2_radial_1_142" cx="0" cy="0" r="1" gradientUnits="userSpaceOnUse" gradientTransform="translate(212.344 17.809) rotate(-136.426) scale(37.0676 70.0163)">
<stop stop-color="#FFDDE7"/>
<stop offset="0.2179" stop-color="#EDB0C2"/>
<stop offset="0.4667" stop-color="#DB839D"/>
<stop offset="0.6891" stop-color="#CF6282"/>
<stop offset="0.8744" stop-color="#C74E72"/>
<stop offset="1" stop-color="#C4476C"/>
</radialGradient>
<radialGradient id="paint3_radial_1_142" cx="0" cy="0" r="1" gradientUnits="userSpaceOnUse" gradientTransform="translate(215.195 27.2081) rotate(-133.868) scale(60.3271 92.2614)">
<stop stop-color="#FFDDE7"/>
<stop offset="0.1884" stop-color="#F2BCCC"/>
<stop offset="0.5725" stop-color="#D97D98"/>
<stop offset="0.8537" stop-color="#CA5678"/>
<stop offset="1" stop-color="#C4476C"/>
</radialGradient>
<radialGradient id="paint4_radial_1_142" cx="0" cy="0" r="1" gradientUnits="userSpaceOnUse" gradientTransform="translate(203.827 26.4029) rotate(-132.028) scale(51.4916 107.369)">
<stop stop-color="#FFDDE7"/>
<stop offset="0.2122" stop-color="#F4C2D1"/>
<stop offset="0.6653" stop-color="#D97D99"/>
<stop offset="1" stop-color="#C4476C"/>
</radialGradient>
<radialGradient id="paint5_radial_1_142" cx="0" cy="0" r="1" gradientUnits="userSpaceOnUse" gradientTransform="translate(186.924 91.6049) rotate(-131.722) scale(54.6591 119.21)">
<stop stop-color="#FFDDE7"/>
<stop offset="0.1469" stop-color="#F9CEDB"/>
<stop offset="0.4298" stop-color="#EAA7BA"/>
<stop offset="0.8166" stop-color="#D16787"/>
<stop offset="1" stop-color="#C4476C"/>
</radialGradient>
<radialGradient id="paint6_radial_1_142" cx="0" cy="0" r="1" gradientUnits="userSpaceOnUse" gradientTransform="translate(146.661 32.1154) rotate(-156.392) scale(70.6047 124.64)">
<stop stop-color="#FFDDE7"/>
<stop offset="0.1327" stop-color="#FDD7E2"/>
<stop offset="0.3052" stop-color="#F6C7D5"/>
<stop offset="0.4997" stop-color="#ECACBF"/>
<stop offset="0.7103" stop-color="#DD87A0"/>
<stop offset="0.9316" stop-color="#CA5779"/>
<stop offset="1" stop-color="#C4476C"/>
</radialGradient>
<linearGradient id="paint7_linear_1_142" x1="136.426" y1="211.991" x2="-99.1938" y2="502.111" gradientUnits="userSpaceOnUse">
<stop stop-color="#9CD38B"/>
<stop offset="0.0186" stop-color="#9CD28A"/>
<stop offset="0.6632" stop-color="#91AB6B"/>
<stop offset="1" stop-color="#8D9C5F"/>
</linearGradient>
<linearGradient id="paint8_linear_1_142" x1="93.404" y1="142.936" x2="91.1519" y2="159.886" gradientUnits="userSpaceOnUse">
<stop stop-color="#9CD38B"/>
<stop offset="0.0186" stop-color="#9CD28A"/>
<stop offset="0.6632" stop-color="#91AB6B"/>
<stop offset="1" stop-color="#8D9C5F"/>
</linearGradient>
<linearGradient id="paint9_linear_1_142" x1="107.41" y1="147.482" x2="100.308" y2="163.381" gradientUnits="userSpaceOnUse">
<stop stop-color="#9CD38B"/>
<stop offset="0.0186" stop-color="#9CD28A"/>
<stop offset="0.6632" stop-color="#91AB6B"/>
<stop offset="1" stop-color="#8D9C5F"/>
</linearGradient>
<linearGradient id="paint10_linear_1_142" x1="102.96" y1="138.722" x2="87.8337" y2="153.444" gradientUnits="userSpaceOnUse">
<stop stop-color="#9CD38B"/>
<stop offset="0.0186" stop-color="#9CD28A"/>
<stop offset="0.6632" stop-color="#91AB6B"/>
<stop offset="1" stop-color="#8D9C5F"/>
</linearGradient>
<linearGradient id="paint11_linear_1_142" x1="103.167" y1="142.673" x2="106.017" y2="161.425" gradientUnits="userSpaceOnUse">
<stop stop-color="#9CD38B"/>
<stop offset="0.0186" stop-color="#9CD28A"/>
<stop offset="0.6632" stop-color="#91AB6B"/>
<stop offset="1" stop-color="#8D9C5F"/>
</linearGradient>
</defs>
</svg>
