<svg width="167" height="187" viewBox="0 0 167 187" fill="none" xmlns="http://www.w3.org/2000/svg">
<path d="M48.459 145.512C48.459 145.512 62.86 155.815 72.2166 150.302C81.5722 144.808 109.512 97.517 108.459 65.1017C107.405 32.6863 105.209 1.41636 86.2325 4.45109C69.0413 7.2114 29.7727 52.1468 29.8369 81.9798C29.924 111.814 40.2782 136.748 48.459 145.512Z" fill="url(#paint0_radial_1_113)"/>
<path d="M49.3088 156.318C49.3088 156.318 63.4053 163.705 74.4928 158.946C85.5585 154.166 120.197 127.041 137.041 92.8368C159.229 47.7294 142.524 9.92561 126.409 17.0826C110.294 24.2395 65.7159 60.4856 57.6185 93.6969C49.521 126.908 43.3592 145.396 49.3088 156.318Z" fill="url(#paint1_linear_1_113)"/>
<path d="M65.4486 174.984C74.6542 172.732 90.5409 166.399 99.3363 159.766C108.133 153.114 123.601 117.124 124.17 79.3082C125.132 14.7191 89.1078 12.2131 79.6211 27.0595C53.8743 67.307 37.1437 57.9888 25.6936 100.147C15.5075 137.586 24.3385 185.03 65.4486 174.984Z" fill="url(#paint2_radial_1_113)"/>
<path opacity="0.2" d="M67.7625 169.133C70.0163 157.501 73.8663 146.129 77.8008 134.897C81.8041 123.669 86.0743 112.611 89.7253 101.52C93.3981 90.4499 96.4288 79.3452 98.1803 68.075C100.023 56.8097 100.47 45.431 100.335 33.7293C105.02 44.6425 106.967 56.4214 106.774 68.2417C106.578 80.1008 104.127 91.9758 100.296 103.427C96.4868 114.899 91.4086 126.011 85.8821 136.904C80.2868 147.794 74.3567 158.491 67.7625 169.133Z" fill="#C497EB"/>
<path d="M75.2608 51.013C77.2642 19.0721 59.4144 8.31267 48.3239 19.1624C21.2376 45.7176 6.42907 77.9676 3.50507 112.506C1.01392 141.949 25.3199 180.431 58.0847 178.93C69.6825 178.401 68.7356 155.195 75.2608 51.013Z" fill="url(#paint3_radial_1_113)"/>
<path opacity="0.2" d="M48.6033 34.627C44.2225 45.6012 39.9 56.3451 36.5357 67.2373C33.1036 78.1065 30.4951 89.0585 29.147 100.097C27.8 111.117 27.6446 122.219 29.2854 133.281C30.8564 144.359 34.3206 155.304 39.6508 166.193C30.3461 156.941 24.2964 145.741 20.9311 134.236C17.5907 122.694 16.9618 110.772 18.4337 99.1365C19.8837 87.4805 23.3897 76.0899 28.4763 65.2506C33.5629 54.4113 40.1655 44.0421 48.6033 34.627Z" fill="#C497EB"/>
<path d="M123.003 41.6912C124.357 19.328 144.919 25.3871 149.115 38.1421C155.899 58.8575 174.744 87.1631 148.286 131.692C115.789 186.368 75.4292 184.078 60.164 179.625C27.8424 170.234 116.897 143.191 123.003 41.6912Z" fill="url(#paint4_radial_1_113)"/>
<path opacity="0.2" d="M145.839 43.4931C145.597 54.9217 145.02 66.1767 143.955 77.503C142.823 88.8063 140.996 100.209 137.27 111.412C133.569 122.579 127.835 133.481 119.841 143.192C111.87 152.904 101.889 161.498 90.3868 168.434C98.6828 159.089 106.446 149.813 112.631 139.947C118.882 130.123 123.548 119.845 127.105 109.216C130.663 98.587 133.156 87.6288 135.794 76.5616C138.5 65.5174 141.259 54.3205 145.839 43.4931Z" fill="#C497EB"/>
<defs>
<radialGradient id="paint0_radial_1_113" cx="0" cy="0" r="1" gradientUnits="userSpaceOnUse" gradientTransform="translate(80.6222 -27.9854) rotate(1.48372) scale(55.8404 73.8768)">
<stop stop-color="#DAC8EB"/>
<stop offset="0.3135" stop-color="#CCAFEB"/>
<stop offset="0.7514" stop-color="#BC91EB"/>
<stop offset="1" stop-color="#B686EB"/>
</radialGradient>
<linearGradient id="paint1_linear_1_113" x1="60.6252" y1="82.1101" x2="137.031" y2="101.993" gradientUnits="userSpaceOnUse">
<stop stop-color="#DAC8EB"/>
<stop offset="0.3135" stop-color="#CCAFEB"/>
<stop offset="0.7514" stop-color="#BC91EB"/>
<stop offset="1" stop-color="#B686EB"/>
</linearGradient>
<radialGradient id="paint2_radial_1_113" cx="0" cy="0" r="1" gradientUnits="userSpaceOnUse" gradientTransform="translate(95.0801 48.1605) rotate(0.643606) scale(50.4447 80.7384)">
<stop stop-color="#DAC8EB"/>
<stop offset="0.4448" stop-color="#CBADEB"/>
<stop offset="1" stop-color="#B686EB"/>
</radialGradient>
<radialGradient id="paint3_radial_1_113" cx="0" cy="0" r="1" gradientUnits="userSpaceOnUse" gradientTransform="translate(67.266 67.6571) rotate(17.1467) scale(70.5555 123.312)">
<stop stop-color="#DAC8EB"/>
<stop offset="0.2909" stop-color="#D2B9EB"/>
<stop offset="0.8485" stop-color="#BC92EB"/>
<stop offset="1" stop-color="#B686EB"/>
</radialGradient>
<radialGradient id="paint4_radial_1_113" cx="0" cy="0" r="1" gradientUnits="userSpaceOnUse" gradientTransform="translate(105.418 71.4697) rotate(-4.03426) scale(76.626 178.117)">
<stop stop-color="#DAC8EB"/>
<stop offset="0.3733" stop-color="#CEB2EB"/>
<stop offset="1" stop-color="#B686EB"/>
</radialGradient>
</defs>
</svg>
