<svg width="167" height="188" viewBox="0 0 167 188" fill="none" xmlns="http://www.w3.org/2000/svg">
<path d="M117.844 146.287C117.844 146.287 103.446 156.642 94.0877 151.096C84.7304 145.57 56.7766 98.0151 57.8207 65.4249C58.8648 32.8346 61.0515 1.39642 80.0296 4.45302C97.2218 7.23319 136.504 52.4227 136.448 82.4169C136.37 112.412 126.023 137.478 117.844 146.287Z" fill="url(#paint0_radial_1_91)"/>
<path d="M116.998 157.151C116.998 157.151 102.903 164.574 91.8141 159.786C80.7469 154.977 46.1004 127.695 29.2454 93.3017C7.04416 47.9442 23.7393 9.94097 39.8563 17.1412C55.9733 24.3415 100.563 60.7962 108.67 94.1894C116.777 127.582 122.944 146.172 116.998 157.151Z" fill="url(#paint1_linear_1_91)"/>
<path d="M100.863 175.913C91.6566 173.646 75.7678 167.275 66.9704 160.604C58.1719 153.913 42.6932 117.724 42.1136 79.7036C41.1326 14.7652 77.1565 12.2561 86.6476 27.1854C112.406 67.6578 129.135 58.2941 140.597 100.684C150.794 138.328 141.977 186.025 100.863 175.913Z" fill="url(#paint2_radial_1_91)"/>
<path opacity="0.2" d="M98.5473 170.031C96.2901 158.335 92.4368 146.9 88.499 135.606C84.4924 124.317 80.2189 113.198 76.5647 102.046C72.8886 90.9146 69.8546 79.7491 68.0999 68.4175C66.2535 57.0908 65.804 45.6504 65.9353 33.8856C61.2534 44.8563 59.3092 56.6983 59.5063 68.5826C59.7055 80.5058 62.1597 92.4457 65.9943 103.96C69.8069 115.495 74.8884 126.668 80.4181 137.622C86.0167 148.573 91.9499 159.329 98.5473 170.031Z" fill="#C497EB"/>
<path d="M91.0147 51.2696C89.0021 19.1555 106.849 8.34309 117.943 19.2546C145.037 45.9611 159.855 78.3896 162.789 113.115C165.289 142.719 140.994 181.401 108.228 179.883C96.6298 179.347 97.57 156.016 91.0147 51.2696Z" fill="url(#paint3_radial_1_91)"/>
<path opacity="0.2" d="M117.668 34.8027C122.052 45.8375 126.378 56.6407 129.745 67.5928C133.18 78.5217 135.792 89.5336 137.143 100.632C138.494 111.712 138.652 122.874 137.015 133.995C135.447 145.133 131.986 156.136 126.658 167.083C135.961 157.783 142.007 146.524 145.369 134.958C148.706 123.355 149.332 111.368 147.857 99.6695C146.403 87.9501 142.894 76.4969 137.804 65.5976C132.714 54.6983 126.109 44.2712 117.668 34.8027Z" fill="#C497EB"/>
<path d="M43.2691 41.8838C41.9084 19.3994 21.348 25.4853 17.156 38.308C10.3778 59.1333 -8.45998 87.5865 18.0116 132.364C50.5248 187.344 90.8847 185.054 106.149 180.581C138.468 171.148 49.4045 143.934 43.2691 41.8838Z" fill="url(#paint4_radial_1_91)"/>
<path opacity="0.2" d="M20.4334 43.6887C20.6785 55.1791 21.2593 66.495 22.327 77.8829C23.4625 89.2475 25.2933 100.712 29.0225 111.977C32.7268 123.205 38.464 134.167 46.4605 143.934C54.4341 153.701 64.4177 162.343 75.9226 169.32C67.6237 159.923 59.8576 150.594 53.6699 140.673C47.4155 130.794 42.7468 120.46 39.1864 109.772C35.626 99.0846 33.1289 88.0665 30.488 76.9387C27.7794 65.8341 25.0166 54.5759 20.4334 43.6887Z" fill="#C497EB"/>
<defs>
<radialGradient id="paint0_radial_1_91" cx="0" cy="0" r="1" gradientUnits="userSpaceOnUse" gradientTransform="translate(85.6306 -28.1571) rotate(178.525) scale(55.8407 74.2768)">
<stop stop-color="#DAC8EB"/>
<stop offset="0.3135" stop-color="#CCAFEB"/>
<stop offset="0.7514" stop-color="#BC91EB"/>
<stop offset="1" stop-color="#B686EB"/>
</radialGradient>
<linearGradient id="paint1_linear_1_91" x1="105.66" y1="82.5391" x2="29.2169" y2="102.345" gradientUnits="userSpaceOnUse">
<stop stop-color="#DAC8EB"/>
<stop offset="0.3135" stop-color="#CCAFEB"/>
<stop offset="0.7514" stop-color="#BC91EB"/>
<stop offset="1" stop-color="#B686EB"/>
</linearGradient>
<radialGradient id="paint2_radial_1_91" cx="0" cy="0" r="1" gradientUnits="userSpaceOnUse" gradientTransform="translate(71.1945 48.396) rotate(179.369) scale(50.4452 81.1751)">
<stop stop-color="#DAC8EB"/>
<stop offset="0.4448" stop-color="#CBADEB"/>
<stop offset="1" stop-color="#B686EB"/>
</radialGradient>
<radialGradient id="paint3_radial_1_91" cx="0" cy="0" r="1" gradientUnits="userSpaceOnUse" gradientTransform="translate(99.0144 68.0059) rotate(162.78) scale(70.5782 123.94)">
<stop stop-color="#DAC8EB"/>
<stop offset="0.2909" stop-color="#D2B9EB"/>
<stop offset="0.8485" stop-color="#BC92EB"/>
<stop offset="1" stop-color="#B686EB"/>
</radialGradient>
<radialGradient id="paint4_radial_1_91" cx="0" cy="0" r="1" gradientUnits="userSpaceOnUse" gradientTransform="translate(60.8633 71.8283) rotate(-175.928) scale(76.6324 179.067)">
<stop stop-color="#DAC8EB"/>
<stop offset="0.3733" stop-color="#CEB2EB"/>
<stop offset="1" stop-color="#B686EB"/>
</radialGradient>
</defs>
</svg>
